<svg width="82" height="82" viewBox="0 0 82 82" fill="none" xmlns="http://www.w3.org/2000/svg">
<path d="M20.748 55.7344C21.1753 55.7344 21.5533 55.5673 21.8819 55.2334L41.2563 35.544L60.6306 55.2334C60.9592 55.5673 61.3372 55.7344 61.7645 55.7344C62.1917 55.7344 62.5697 55.5673 62.8983 55.2334L65.3633 52.7283C65.6919 52.3944 65.8562 52.0103 65.8562 51.576C65.8562 51.1417 65.6919 50.7576 65.3633 50.4237L42.3901 27.077C42.0615 26.7429 41.6835 26.576 41.2563 26.576C40.829 26.576 40.451 26.7429 40.1224 27.077L17.1492 50.4237C16.8206 50.7576 16.6563 51.1417 16.6563 51.576C16.6563 52.0103 16.8206 52.3944 17.1492 52.7283L19.6142 55.2334C19.9428 55.5673 20.3208 55.7344 20.748 55.7344Z" fill="white"/>
</svg>
