<svg width="170" height="43" viewBox="0 0 170 43" fill="none" xmlns="http://www.w3.org/2000/svg">
<path d="M31.7298 39.2794C39.4464 31.1924 43.0307 19.9916 44.1951 15.5785C45.1996 20.462 40.1998 32.9173 37.6428 37.8681C41.7522 40.6235 47.0032 36.0088 49.8114 30.1171C52.5966 24.2031 53.2359 15.5785 45.953 5.60977C39.8573 8.07394 35.7936 11.4341 33.0996 14.436C34.515 18.5131 34.2867 24.0911 33.7845 25.7264C33.1909 21.5373 32.095 18.4235 31.1818 16.6762C27.7573 10.0005 14.8582 1.89107 0.292418 2.36151C-0.849094 16.1385 0.132607 43.4461 26.3418 40.3547C25.2688 30.5427 14.9951 14.772 9.81263 9.46285C20.0178 15.7801 29.1499 33.7014 31.7298 39.2794Z" fill="url(#paint0_linear_5_20)"/>
<path d="M70.6452 16.2331V20.4596H78.7038V24.013H66.8757V5.16904H78.5672V8.72246H70.6452V12.7335H77.8844V16.2331H70.6452ZM87.4049 24.3899C85.3474 24.3899 83.6264 23.7079 82.242 22.344C80.8764 20.98 80.1935 19.293 80.1935 17.283C80.1935 15.273 80.8764 13.586 82.242 12.222C83.6264 10.8581 85.3474 10.1761 87.4049 10.1761C88.7343 10.1761 89.9453 10.4902 91.0378 11.1183C92.1309 11.7465 92.9594 12.59 93.5238 13.6488L90.4916 15.3986C90.2184 14.8423 89.7997 14.4026 89.2353 14.0795C88.689 13.7565 88.0696 13.595 87.3777 13.595C86.3215 13.595 85.4471 13.945 84.7552 14.6448C84.0633 15.3268 83.7171 16.2062 83.7171 17.283C83.7171 18.3239 84.0633 19.2033 84.7552 19.9212C85.4471 20.6031 86.3215 20.9441 87.3777 20.9441C88.0878 20.9441 88.7162 20.7916 89.2625 20.4865C89.8269 20.1634 90.2456 19.7238 90.5188 19.1674L93.5782 20.8903C92.9775 21.9671 92.1213 22.8195 91.0106 23.4477C89.9181 24.0758 88.7162 24.3899 87.4049 24.3899ZM106.865 22.344C105.482 23.7079 103.77 24.3899 101.73 24.3899C99.6903 24.3899 97.9784 23.7079 96.5946 22.344C95.2108 20.98 94.5183 19.293 94.5183 17.283C94.5183 15.2909 95.2108 13.6129 96.5946 12.249C97.9971 10.8671 99.7084 10.1761 101.73 10.1761C103.752 10.1761 105.463 10.8671 106.865 12.249C108.268 13.6309 108.969 15.3089 108.969 17.283C108.969 19.2751 108.268 20.962 106.865 22.344ZM99.0805 19.9481C99.7906 20.648 100.674 20.998 101.73 20.998C102.787 20.998 103.669 20.648 104.38 19.9481C105.09 19.2481 105.445 18.3598 105.445 17.283C105.445 16.2062 105.09 15.3178 104.38 14.6179C103.669 13.918 102.787 13.5681 101.73 13.5681C100.674 13.5681 99.7906 13.918 99.0805 14.6179C98.3881 15.3358 98.0424 16.2242 98.0424 17.283C98.0424 18.3418 98.3881 19.2302 99.0805 19.9481ZM116.569 19.975L119.902 10.553H123.78L118.59 24.013H114.575L109.385 10.553H113.264L116.569 19.975ZM127.228 8.93785C126.645 8.93785 126.135 8.73145 125.698 8.31865C125.279 7.88793 125.07 7.38544 125.07 6.81114C125.07 6.23684 125.279 5.73435 125.698 5.30364C126.135 4.87292 126.645 4.65756 127.228 4.65756C127.829 4.65756 128.339 4.87292 128.757 5.30364C129.194 5.73435 129.413 6.23684 129.413 6.81114C129.413 7.38544 129.194 7.88793 128.757 8.31865C128.339 8.73145 127.829 8.93785 127.228 8.93785ZM129.003 24.013H125.479V10.553H129.003V24.013ZM135.373 14.3757C135.373 14.9499 136.201 15.4435 137.858 15.8563C138.441 15.9819 138.969 16.1344 139.442 16.3139C139.916 16.4754 140.389 16.7177 140.863 17.0407C141.355 17.3458 141.738 17.7586 142.011 18.279C142.284 18.7995 142.42 19.4007 142.42 20.0827C142.42 21.4646 141.892 22.5324 140.836 23.2862C139.78 24.022 138.477 24.3899 136.929 24.3899C134.125 24.3899 132.213 23.322 131.193 21.1864L134.252 19.4904C134.671 20.657 135.564 21.2402 136.929 21.2402C138.186 21.2402 138.815 20.8544 138.815 20.0827C138.815 19.5084 137.986 19.0149 136.329 18.6021C135.709 18.4406 135.181 18.279 134.744 18.1175C134.307 17.956 133.834 17.7227 133.324 17.4176C132.814 17.0946 132.423 16.6908 132.15 16.2062C131.895 15.7037 131.767 15.1204 131.767 14.4564C131.767 13.1283 132.258 12.0875 133.242 11.3337C134.243 10.562 135.482 10.1761 136.957 10.1761C138.068 10.1761 139.079 10.4274 139.989 10.9299C140.899 11.4145 141.619 12.1144 142.147 13.0297L139.142 14.6448C138.705 13.7296 137.977 13.2719 136.957 13.2719C136.501 13.2719 136.119 13.3796 135.81 13.595C135.518 13.7924 135.373 14.0526 135.373 14.3757ZM152.099 10.553V13.8911H149.012V19.4904C149.012 19.957 149.13 20.298 149.367 20.5134C149.604 20.7287 149.95 20.8544 150.405 20.8903C150.86 20.9082 151.425 20.8992 152.099 20.8634V24.013C149.713 24.2822 148.01 24.0668 146.99 23.3669C145.989 22.649 145.488 21.3569 145.488 19.4904V13.8911H143.112V10.553H145.488V7.83409L149.012 6.78423V10.553H152.099ZM164.537 12.1413V10.553H168.06V24.013H164.537V22.4247C163.481 23.7348 161.996 24.3899 160.084 24.3899C158.263 24.3899 156.697 23.7079 155.386 22.344C154.093 20.962 153.446 19.2751 153.446 17.283C153.446 15.3089 154.093 13.6309 155.386 12.249C156.697 10.8671 158.263 10.1761 160.084 10.1761C161.996 10.1761 163.481 10.8312 164.537 12.1413ZM158.035 20.0288C158.745 20.7287 159.647 21.0787 160.74 21.0787C161.833 21.0787 162.734 20.7287 163.444 20.0288C164.172 19.311 164.537 18.3957 164.537 17.283C164.537 16.1703 164.172 15.264 163.444 14.5641C162.734 13.8462 161.833 13.4873 160.74 13.4873C159.647 13.4873 158.745 13.8462 158.035 14.5641C157.325 15.264 156.97 16.1703 156.97 17.283C156.97 18.3957 157.325 19.311 158.035 20.0288Z" fill="#2CAA4F"/>
<path d="M72.3894 32.6271V33.443H69.5391V32.6271H72.3894ZM73.2383 32.6271V40.1463H72.2744V32.6271H73.2383ZM69.2138 32.6271H70.1732L70.0366 36.3092C70.019 36.8394 69.9862 37.3128 69.9369 37.7294C69.8881 38.1425 69.8184 38.5023 69.7272 38.8087C69.6365 39.1117 69.5181 39.363 69.3713 39.5627C69.2246 39.759 69.0444 39.9053 68.8313 40.0017C68.6216 40.0981 68.3717 40.1463 68.0822 40.1463H67.8306V39.3355L68.0136 39.32C68.1745 39.3062 68.3128 39.2632 68.4278 39.1909C68.5468 39.1152 68.6443 39.0015 68.7214 38.8501C68.8018 38.6986 68.8664 38.5023 68.9152 38.2613C68.9679 38.0203 69.0075 37.7259 69.0359 37.3782C69.0636 37.027 69.0846 36.6174 69.0988 36.1491L69.2138 32.6271ZM77.5931 39.1909V36.1594C77.5931 35.9391 77.5585 35.7618 77.4883 35.6275C77.422 35.4933 77.3205 35.3951 77.1845 35.3332C77.0519 35.2712 76.8842 35.2402 76.6813 35.2402C76.4858 35.2402 76.3164 35.2798 76.173 35.359C76.0336 35.4381 75.9248 35.5431 75.8483 35.674C75.7747 35.8048 75.7384 35.9494 75.7384 36.1078H74.8108C74.8108 35.9081 74.8544 35.7102 74.9417 35.5139C75.0323 35.3176 75.1615 35.1403 75.3293 34.982C75.497 34.8202 75.6982 34.6928 75.9322 34.5998C76.1696 34.5034 76.4354 34.4552 76.7284 34.4552C77.078 34.4552 77.3874 34.512 77.656 34.6256C77.9252 34.7358 78.1365 34.9166 78.2901 35.1679C78.4437 35.4192 78.5207 35.7532 78.5207 36.1698V38.9275C78.5207 39.1134 78.5349 39.3114 78.5627 39.5214C78.5944 39.7314 78.638 39.9122 78.6936 40.0637V40.1463H77.7348C77.6894 40.0361 77.6543 39.8898 77.6299 39.7073C77.6056 39.5214 77.5931 39.3492 77.5931 39.1909ZM77.7399 36.7585L77.7506 37.4298H77.1058C76.8859 37.4298 76.6847 37.454 76.5034 37.5021C76.3249 37.5503 76.1713 37.6209 76.0421 37.7139C75.9129 37.8034 75.8132 37.9153 75.7435 38.0496C75.6772 38.1838 75.6438 38.3371 75.6438 38.5092C75.6438 38.733 75.6755 38.912 75.7384 39.0463C75.8013 39.1771 75.8954 39.2718 76.0212 39.3303C76.147 39.3888 76.3056 39.4181 76.4977 39.4181C76.7323 39.4181 76.938 39.3647 77.1165 39.258C77.2945 39.1513 77.4327 39.0222 77.5302 38.8707C77.6316 38.7192 77.6787 38.578 77.6719 38.4472L77.8764 38.8759C77.8623 39.0101 77.8169 39.1565 77.7399 39.3148C77.6668 39.4698 77.5636 39.6195 77.431 39.7641C77.2979 39.9053 77.1409 40.0223 76.959 40.1153C76.7811 40.2048 76.5799 40.2496 76.3566 40.2496C76.028 40.2496 75.7401 40.1876 75.4919 40.0637C75.2471 39.9397 75.0567 39.7572 74.9207 39.5162C74.7841 39.2753 74.7161 38.9774 74.7161 38.6228C74.7161 38.3543 74.7637 38.1064 74.8578 37.8792C74.9519 37.6519 75.0918 37.4557 75.2771 37.2904C75.4624 37.1217 75.6948 36.9909 75.9741 36.8979C76.2569 36.805 76.5839 36.7585 76.9539 36.7585H77.7399ZM83.1901 36.9806V37.7552H80.7846V36.9806H83.1901ZM80.9733 34.5585V40.1463H80.0456V34.5585H80.9733ZM83.9443 34.5585V40.1463H83.0172V34.5585H83.9443ZM86.2869 34.5585H87.2145L87.1465 36.65C87.129 37.1803 87.0768 37.6381 86.989 38.0237C86.9017 38.4093 86.7901 38.7381 86.6541 39.0101C86.5175 39.2787 86.364 39.5042 86.1928 39.6867C86.0217 39.8691 85.8432 40.0223 85.6579 40.1463H85.2074L85.2284 39.3664L85.412 39.3613C85.5134 39.227 85.6092 39.0893 85.6998 38.9482C85.7911 38.8035 85.8732 38.6332 85.9463 38.4369C86.02 38.2372 86.0789 37.9945 86.1248 37.7087C86.1736 37.4195 86.2047 37.0666 86.2189 36.65L86.2869 34.5585ZM86.5017 34.5585H89.4523V40.1463H88.5247V35.4416H86.5017V34.5585ZM85.0295 39.3613H90.1125V41.7937H89.1848V40.1463H85.9571V41.7937H85.0244L85.0295 39.3613ZM91.26 34.5585H92.1876V39.3613H93.7862V34.5585H94.7138V39.3613H96.3169V34.5585H97.2394V40.1463H91.26V34.5585ZM101.51 39.1909V36.1594C101.51 35.9391 101.475 35.7618 101.406 35.6275C101.339 35.4933 101.238 35.3951 101.101 35.3332C100.969 35.2712 100.801 35.2402 100.599 35.2402C100.403 35.2402 100.233 35.2798 100.09 35.359C99.9504 35.4381 99.8421 35.5431 99.7651 35.674C99.692 35.8048 99.6551 35.9494 99.6551 36.1078H98.7275C98.7275 35.9081 98.7711 35.7102 98.8584 35.5139C98.9496 35.3176 99.0788 35.1403 99.2466 34.982C99.4143 34.8202 99.6149 34.6928 99.8489 34.5998C100.086 34.5034 100.352 34.4552 100.646 34.4552C100.995 34.4552 101.304 34.512 101.573 34.6256C101.842 34.7358 102.053 34.9166 102.207 35.1679C102.361 35.4192 102.438 35.7532 102.438 36.1698V38.9275C102.438 39.1134 102.452 39.3114 102.48 39.5214C102.511 39.7314 102.555 39.9122 102.611 40.0637V40.1463H101.651C101.606 40.0361 101.572 39.8898 101.547 39.7073C101.522 39.5214 101.51 39.3492 101.51 39.1909ZM101.657 36.7585L101.667 37.4298H101.023C100.803 37.4298 100.602 37.454 100.42 37.5021C100.242 37.5503 100.089 37.6209 99.9589 37.7139C99.8297 37.8034 99.7305 37.9153 99.6602 38.0496C99.5939 38.1838 99.5611 38.3371 99.5611 38.5092C99.5611 38.733 99.5922 38.912 99.6551 39.0463C99.718 39.1771 99.8127 39.2718 99.9379 39.3303C100.064 39.3888 100.223 39.4181 100.415 39.4181C100.649 39.4181 100.855 39.3647 101.033 39.258C101.212 39.1513 101.349 39.0222 101.447 38.8707C101.549 38.7192 101.596 38.578 101.589 38.4472L101.793 38.8759C101.779 39.0101 101.734 39.1565 101.657 39.3148C101.584 39.4698 101.48 39.6195 101.348 39.7641C101.215 39.9053 101.058 40.0223 100.876 40.1153C100.698 40.2048 100.497 40.2496 100.273 40.2496C99.9453 40.2496 99.6568 40.1876 99.4086 40.0637C99.1644 39.9397 98.974 39.7572 98.8374 39.5162C98.7014 39.2753 98.6334 38.9774 98.6334 38.6228C98.6334 38.3543 98.6805 38.1064 98.7745 37.8792C98.8692 37.6519 99.0091 37.4557 99.1939 37.2904C99.3792 37.1217 99.6115 36.9909 99.8909 36.8979C100.174 36.805 100.501 36.7585 100.871 36.7585H101.657ZM109.402 37.4505V37.5589C109.402 37.9515 109.366 38.3129 109.292 38.6435C109.219 38.9705 109.109 39.2546 108.962 39.4956C108.819 39.7366 108.639 39.9242 108.422 40.0585C108.209 40.1893 107.961 40.2547 107.678 40.2547C107.434 40.2547 107.219 40.2186 107.034 40.1463C106.848 40.0705 106.691 39.9621 106.562 39.8209C106.432 39.6798 106.332 39.5111 106.258 39.3148C106.185 39.1152 106.134 38.8913 106.106 38.6435V36.1646C106.134 35.8995 106.185 35.6619 106.258 35.4519C106.332 35.2419 106.431 35.0629 106.557 34.9148C106.686 34.7668 106.842 34.6532 107.023 34.574C107.208 34.4948 107.423 34.4552 107.668 34.4552C107.898 34.4552 108.106 34.5034 108.291 34.5998C108.476 34.6928 108.639 34.827 108.778 35.0026C108.918 35.1782 109.033 35.39 109.125 35.6378C109.215 35.8823 109.283 36.1577 109.329 36.4641C109.378 36.7705 109.402 37.0993 109.402 37.4505ZM108.48 37.5589V37.4505C108.48 37.2095 108.466 36.9806 108.438 36.7637C108.414 36.5433 108.373 36.3419 108.318 36.1594C108.265 35.9735 108.195 35.8117 108.108 35.674C108.024 35.5363 107.921 35.4295 107.799 35.3538C107.68 35.278 107.54 35.2402 107.379 35.2402C107.215 35.2402 107.076 35.266 106.96 35.3176C106.848 35.3693 106.759 35.4381 106.693 35.5242C106.627 35.6069 106.578 35.6946 106.546 35.7876V39.0256C106.585 39.1014 106.637 39.1737 106.703 39.2425C106.77 39.3079 106.857 39.363 106.966 39.4078C107.077 39.4491 107.219 39.4698 107.39 39.4698C107.586 39.4698 107.752 39.4216 107.888 39.3251C108.028 39.2253 108.141 39.0876 108.228 38.912C108.315 38.7364 108.378 38.5333 108.417 38.3026C108.459 38.0719 108.48 37.824 108.48 37.5589ZM103.711 37.5589V37.4505C103.711 37.0993 103.734 36.7705 103.779 36.4641C103.828 36.1577 103.898 35.8823 103.989 35.6378C104.083 35.39 104.2 35.1782 104.34 35.0026C104.48 34.827 104.641 34.6928 104.822 34.5998C105.007 34.5034 105.215 34.4552 105.446 34.4552C105.683 34.4552 105.891 34.4948 106.069 34.574C106.248 34.6532 106.398 34.7668 106.52 34.9148C106.646 35.0629 106.745 35.2419 106.819 35.4519C106.892 35.6619 106.941 35.8995 106.966 36.1646V38.5453C106.937 38.807 106.887 39.0428 106.813 39.2529C106.744 39.4629 106.646 39.6436 106.52 39.7951C106.398 39.9432 106.248 40.0567 106.069 40.1359C105.891 40.2151 105.682 40.2547 105.441 40.2547C105.157 40.2547 104.908 40.1893 104.691 40.0585C104.478 39.9242 104.298 39.7366 104.152 39.4956C104.005 39.2546 103.894 38.9705 103.821 38.6435C103.748 38.3129 103.711 37.9515 103.711 37.5589ZM104.639 37.4505V37.5589C104.639 37.824 104.656 38.0719 104.691 38.3026C104.726 38.5333 104.783 38.7364 104.864 38.912C104.944 39.0876 105.051 39.2253 105.184 39.3251C105.317 39.4216 105.48 39.4698 105.677 39.4698C105.851 39.4698 105.994 39.4439 106.106 39.3923C106.218 39.3407 106.305 39.2735 106.368 39.1909C106.435 39.1082 106.487 39.0222 106.525 38.9327V35.7876C106.494 35.6946 106.445 35.6069 106.379 35.5242C106.312 35.4381 106.221 35.3693 106.106 35.3176C105.994 35.266 105.854 35.2402 105.687 35.2402C105.488 35.2402 105.32 35.2987 105.184 35.4158C105.051 35.5329 104.944 35.6929 104.864 35.8961C104.783 36.0992 104.726 36.335 104.691 36.6036C104.656 36.8687 104.639 37.151 104.639 37.4505ZM106.054 42.2946V32.2139H106.976V42.2946H106.054ZM112.248 34.5585V40.1463H111.32V34.5585H112.248ZM113.793 34.5585V35.3332H109.795V34.5585H113.793ZM118.007 36.9806V37.7552H115.602V36.9806H118.007ZM115.79 34.5585V40.1463H114.863V34.5585H115.79ZM118.761 34.5585V40.1463H117.834V34.5585H118.761ZM121.015 36.4796H122.398C122.79 36.4796 123.118 36.5588 123.384 36.7172C123.649 36.8721 123.85 37.0873 123.986 37.3627C124.123 37.6347 124.191 37.9445 124.191 38.2923C124.191 38.5505 124.152 38.7932 124.075 39.0204C123.999 39.2443 123.883 39.4405 123.729 39.6092C123.579 39.7779 123.392 39.9104 123.169 40.0068C122.949 40.0998 122.692 40.1463 122.398 40.1463H120.323V34.5585H121.246V39.3613H122.398C122.615 39.3613 122.786 39.3114 122.912 39.2115C123.038 39.1117 123.127 38.9826 123.179 38.8242C123.235 38.6658 123.263 38.5006 123.263 38.3284C123.263 38.1597 123.235 37.9945 123.179 37.8327C123.127 37.6709 123.038 37.5366 122.912 37.4298C122.786 37.3197 122.615 37.2646 122.398 37.2646H121.015V36.4796ZM125.92 34.5585V40.1463H124.992V34.5585H125.92ZM128.551 38.6332L130.605 34.5585H131.532V40.1463H130.605V36.0716L128.551 40.1463H127.628V34.5585H128.551V38.6332ZM130.358 32.5341H131.145C131.145 32.8026 131.082 33.0419 130.956 33.252C130.83 33.4585 130.65 33.6203 130.416 33.7374C130.182 33.8544 129.904 33.913 129.583 33.913C129.097 33.913 128.713 33.7856 128.43 33.5308C128.151 33.2726 128.011 32.9404 128.011 32.5341H128.797C128.797 32.7372 128.856 32.9163 128.975 33.0712C129.094 33.2261 129.296 33.3036 129.583 33.3036C129.862 33.3036 130.061 33.2261 130.18 33.0712C130.299 32.9163 130.358 32.7372 130.358 32.5341ZM136.343 34.5585H137.27L137.202 36.65C137.185 37.1803 137.133 37.6381 137.045 38.0237C136.958 38.4093 136.846 38.7381 136.71 39.0101C136.573 39.2787 136.42 39.5042 136.249 39.6867C136.078 39.8691 135.899 40.0223 135.714 40.1463H135.263L135.284 39.3664L135.468 39.3613C135.569 39.227 135.665 39.0893 135.756 38.9482C135.847 38.8035 135.929 38.6332 136.002 38.4369C136.076 38.2372 136.135 37.9945 136.181 37.7087C136.23 37.4195 136.261 37.0666 136.275 36.65L136.343 34.5585ZM136.558 34.5585H139.508V40.1463H138.581V35.4416H136.558V34.5585ZM135.085 39.3613H140.168V41.7937H139.241V40.1463H136.013V41.7937H135.08L135.085 39.3613ZM142.238 38.6332L144.293 34.5585H145.22V40.1463H144.293V36.0716L142.238 40.1463H141.316V34.5585H142.238V38.6332ZM148.532 37.4763H147.615V36.8876H148.459C148.661 36.8876 148.82 36.8549 148.935 36.7895C149.051 36.7206 149.133 36.626 149.182 36.5054C149.231 36.3849 149.255 36.2438 149.255 36.082C149.255 35.9374 149.227 35.8014 149.172 35.674C149.115 35.5431 149.025 35.4381 148.899 35.359C148.773 35.2763 148.606 35.235 148.396 35.235C148.225 35.235 148.069 35.2746 147.929 35.3538C147.79 35.4295 147.68 35.5345 147.599 35.6688C147.519 35.7997 147.479 35.9477 147.479 36.113H146.556C146.556 35.7721 146.639 35.4795 146.803 35.235C146.971 34.9871 147.194 34.7961 147.473 34.6618C147.753 34.5275 148.06 34.4604 148.396 34.4604C148.675 34.4604 148.925 34.4965 149.145 34.5688C149.365 34.6377 149.552 34.741 149.706 34.8787C149.86 35.0129 149.977 35.1817 150.057 35.3848C150.141 35.5845 150.183 35.8169 150.183 36.082C150.183 36.2713 150.145 36.4504 150.068 36.6191C149.99 36.7877 149.881 36.9375 149.737 37.0683C149.594 37.1957 149.419 37.2956 149.214 37.3679C149.011 37.4402 148.783 37.4763 148.532 37.4763ZM147.615 37.1148H148.532C148.812 37.1148 149.059 37.1475 149.276 37.2129C149.493 37.2749 149.674 37.3679 149.821 37.4918C149.971 37.6158 150.083 37.769 150.156 37.9515C150.234 38.1305 150.272 38.3371 150.272 38.5712C150.272 38.8328 150.226 39.0686 150.136 39.2787C150.045 39.4852 149.916 39.6608 149.748 39.8054C149.584 39.95 149.386 40.0602 149.156 40.1359C148.929 40.2117 148.675 40.2496 148.396 40.2496C148.081 40.2496 147.778 40.1876 147.484 40.0637C147.194 39.9397 146.955 39.7486 146.766 39.4904C146.577 39.2287 146.483 38.8965 146.483 38.4937H147.405C147.405 38.6624 147.446 38.8225 147.526 38.974C147.61 39.1255 147.725 39.2477 147.872 39.3406C148.022 39.4336 148.197 39.4801 148.396 39.4801C148.606 39.4801 148.78 39.4388 148.92 39.3561C149.059 39.2735 149.164 39.1633 149.235 39.0256C149.304 38.8879 149.339 38.7381 149.339 38.5763C149.339 38.3663 149.308 38.1976 149.245 38.0703C149.182 37.9428 149.086 37.8499 148.956 37.7914C148.827 37.7294 148.661 37.6984 148.459 37.6984H147.615V37.1148ZM154.281 39.1909V36.1594C154.281 35.9391 154.246 35.7618 154.176 35.6275C154.11 35.4933 154.008 35.3951 153.872 35.3332C153.74 35.2712 153.572 35.2402 153.369 35.2402C153.173 35.2402 153.004 35.2798 152.861 35.359C152.721 35.4381 152.612 35.5431 152.536 35.674C152.462 35.8048 152.425 35.9494 152.425 36.1078H151.498C151.498 35.9081 151.542 35.7102 151.629 35.5139C151.72 35.3176 151.849 35.1403 152.017 34.982C152.185 34.8202 152.386 34.6928 152.62 34.5998C152.857 34.5034 153.122 34.4552 153.416 34.4552C153.766 34.4552 154.074 34.512 154.344 34.6256C154.613 34.7358 154.824 34.9166 154.978 35.1679C155.131 35.4192 155.208 35.7532 155.208 36.1698V38.9275C155.208 39.1134 155.222 39.3114 155.25 39.5214C155.281 39.7314 155.325 39.9122 155.381 40.0637V40.1463H154.422C154.377 40.0361 154.342 39.8898 154.318 39.7073C154.293 39.5214 154.281 39.3492 154.281 39.1909ZM154.427 36.7585L154.438 37.4298H153.793C153.573 37.4298 153.372 37.454 153.191 37.5021C153.012 37.5503 152.859 37.6209 152.73 37.7139C152.601 37.8034 152.501 37.9153 152.431 38.0496C152.365 38.1838 152.331 38.3371 152.331 38.5092C152.331 38.733 152.363 38.912 152.425 39.0463C152.488 39.1771 152.583 39.2718 152.709 39.3303C152.835 39.3888 152.993 39.4181 153.185 39.4181C153.419 39.4181 153.626 39.3647 153.804 39.258C153.982 39.1513 154.12 39.0222 154.218 38.8707C154.319 38.7192 154.366 38.578 154.359 38.4472L154.563 38.8759C154.55 39.0101 154.505 39.1565 154.427 39.3148C154.354 39.4698 154.251 39.6195 154.118 39.7641C153.985 39.9053 153.828 40.0223 153.647 40.1153C153.469 40.2048 153.267 40.2496 153.044 40.2496C152.716 40.2496 152.428 40.1876 152.179 40.0637C151.935 39.9397 151.744 39.7572 151.608 39.5162C151.472 39.2753 151.404 38.9774 151.404 38.6228C151.404 38.3543 151.451 38.1064 151.545 37.8792C151.639 37.6519 151.779 37.4557 151.965 37.2904C152.149 37.1217 152.382 36.9909 152.662 36.8979C152.944 36.805 153.271 36.7585 153.641 36.7585H154.427ZM157.656 38.6332L159.71 34.5585H160.638V40.1463H159.71V36.0716L157.656 40.1463H156.733V34.5585H157.656V38.6332ZM159.463 32.5341H160.249C160.249 32.8026 160.186 33.0419 160.061 33.252C159.935 33.4585 159.755 33.6203 159.521 33.7374C159.287 33.8544 159.009 33.913 158.688 33.913C158.202 33.913 157.818 33.7856 157.535 33.5308C157.256 33.2726 157.116 32.9404 157.116 32.5341H157.902C157.902 32.7372 157.961 32.9163 158.08 33.0712C158.199 33.2261 158.401 33.3036 158.688 33.3036C158.968 33.3036 159.166 33.2261 159.285 33.0712C159.404 32.9163 159.463 32.7372 159.463 32.5341ZM165.348 36.9806V37.7552H162.943V36.9806H165.348ZM163.131 34.5585V40.1463H162.204V34.5585H163.131ZM166.103 34.5585V40.1463H165.175V34.5585H166.103Z" fill="#A19B9B"/>
<defs>
<linearGradient id="paint0_linear_5_20" x1="-8.71732" y1="32.7502" x2="2.55076" y2="-6.76025" gradientUnits="userSpaceOnUse">
<stop stop-color="#2CAA4F"/>
<stop offset="1" stop-color="#63ED8A"/>
</linearGradient>
</defs>
</svg>
