<svg width="35" height="34" viewBox="0 0 35 34" fill="none" xmlns="http://www.w3.org/2000/svg">
<g clip-path="url(#clip0_11_42)">
<mask id="mask0_11_42" style="mask-type:luminance" maskUnits="userSpaceOnUse" x="0" y="0" width="35" height="34">
<path d="M34.4125 0H0.266846V33.7624H34.4125V0Z" fill="white"/>
</mask>
<g mask="url(#mask0_11_42)">
<path d="M33.9953 31.3617L24.2852 21.7606C26.1661 19.4634 27.2985 16.5444 27.2985 13.3652C27.2985 5.99658 21.2349 0.000976562 13.7826 0.000976562C6.33046 0.000976562 0.266846 5.99651 0.266846 13.3651C0.266846 20.7336 6.33052 26.7292 13.7827 26.7292C16.998 26.7292 19.9502 25.6095 22.2735 23.7497L31.9836 33.3509C32.261 33.6252 32.6252 33.763 32.9895 33.763C33.3537 33.763 33.7179 33.6252 33.9954 33.3509C34.5516 32.8008 34.5516 31.9117 33.9953 31.3617ZM13.7827 23.9157C7.89834 23.9157 3.11231 19.1834 3.11231 13.3651C3.11231 7.54673 7.89834 2.81444 13.7827 2.81444C19.6671 2.81444 24.4532 7.54673 24.4532 13.3651C24.4532 19.1834 19.6671 23.9157 13.7827 23.9157Z" fill="white"/>
</g>
</g>
<defs>
<clipPath id="clip0_11_42">
<rect width="35" height="34" fill="white"/>
</clipPath>
</defs>
</svg>
