<svg width="161" height="33" viewBox="0 0 161 33" fill="none" xmlns="http://www.w3.org/2000/svg">
<mask id="mask0_15_88" style="mask-type:luminance" maskUnits="userSpaceOnUse" x="0" y="0" width="161" height="33">
<path d="M160.573 0H0.287476V33H160.573V0Z" fill="white"/>
</mask>
<g mask="url(#mask0_15_88)">
<path fill-rule="evenodd" clip-rule="evenodd" d="M46.6732 23.4412H40.6033V22.9746V22.5081L42.2736 22.4303C42.4365 22.4303 42.5587 22.2748 42.5587 22.1193V6.21788L40.6033 6.179V5.24591C42.0291 5.20703 43.903 5.20703 45.8584 5.20703C48.9137 5.20703 50.6654 5.59582 52.3764 6.68442C54.617 8.08406 56.002 10.8056 56.002 13.7992C56.002 17.1817 54.8206 20.0587 52.743 21.6916C51.195 22.858 49.1989 23.4412 46.6732 23.4412ZM46.1843 6.06236C45.2881 6.06236 44.7585 6.10124 44.4734 6.179L44.3512 6.21788L44.3104 21.264C44.3104 22.2359 44.7585 22.5081 46.551 22.5081C48.873 22.5081 50.7469 21.8471 52.0098 20.603C53.3134 19.32 54.1688 16.9484 54.1688 14.5768C54.1688 11.4276 53.517 9.60033 51.7246 7.88967C50.421 6.68442 48.5471 6.06236 46.1843 6.06236Z" fill="#1A943C"/>
<path d="M45.8992 5.36242C48.9137 5.36242 50.6654 5.75121 52.2949 6.80093C54.454 8.16169 55.7983 10.8443 55.7983 13.7602C55.7983 17.0649 54.6577 19.9031 52.6208 21.4971C51.0728 22.7024 49.1581 23.2855 46.6732 23.2855H40.807V23.0134V22.7412L42.2735 22.6635C42.5587 22.6635 42.8031 22.4302 42.8031 22.158V6.02336H42.3957L40.807 5.98448V5.44018C42.2735 5.4013 44.066 5.36242 45.8992 5.36242ZM46.5509 22.7024C48.9137 22.7024 50.8691 22.0414 52.1727 20.7584C53.517 19.4365 54.4132 17.0261 54.4132 14.5767C54.4132 11.3886 53.7207 9.48357 51.8875 7.73403C50.5432 6.4899 48.6286 5.82896 46.1843 5.82896C45.2474 5.82896 44.7178 5.86784 44.4326 5.98448L44.1475 6.06224V6.33439L44.1067 21.2638C44.1067 22.508 44.84 22.7024 46.5509 22.7024ZM45.8992 4.97363C43.8623 4.97363 41.9069 5.01251 40.4811 5.01251C40.4404 5.4013 40.4404 5.86784 40.4404 6.33439L42.3957 6.37327V22.0803C42.3957 22.1192 42.355 22.1969 42.2735 22.1969L40.3996 22.2747C40.3996 22.6635 40.3589 23.1689 40.3589 23.5966C41.3773 23.5966 42.5587 23.5577 43.4549 23.5577C44.1067 23.5577 45.5733 23.5966 46.6324 23.5966C49.2804 23.5966 51.2765 22.9745 52.8652 21.7304C55.065 19.9808 56.2057 16.9872 56.2057 13.6825C56.2057 10.5333 54.6984 7.81178 52.4986 6.41215C50.9098 5.44018 49.1581 4.97363 45.8992 4.97363ZM46.5509 22.3136C44.7178 22.3136 44.5141 22.0414 44.5141 21.2638L44.5548 6.33439C44.84 6.25663 45.451 6.21775 46.1843 6.21775C48.6286 6.21775 50.3803 6.87869 51.6024 8.00618C53.2726 9.60021 54.0059 11.3498 54.0059 14.5767C54.0059 16.9483 53.1504 19.2421 51.8875 20.4863C50.7062 21.6526 48.9137 22.3136 46.5509 22.3136Z" fill="#1A943C"/>
<path fill-rule="evenodd" clip-rule="evenodd" d="M60.2795 30.4401C59.9128 30.3624 59.0573 29.7403 58.8944 29.4682C59.8313 28.7683 60.6054 28.0296 61.2164 27.2132C62.0312 26.2412 62.8459 24.8805 63.2533 23.753L63.294 23.6752L63.2533 23.5975C62.3163 21.187 61.6645 19.3597 60.972 17.3769C60.6868 16.5993 60.4424 15.8606 60.2387 15.2385C59.9536 14.3443 59.6684 13.6056 59.424 12.9447C59.3425 12.7892 59.2203 12.7503 59.0981 12.7503L57.9982 12.6725V11.7783H63.1311V12.6725L61.1757 12.7503L61.2572 12.9836C61.3794 13.4501 61.746 14.7331 62.4385 16.9492C62.9681 18.5432 63.4162 19.9429 63.9458 21.498L63.9865 21.6146H64.3939L64.4347 21.498C64.9642 20.1373 65.3716 19.0875 65.9012 17.4935C66.4715 15.8217 66.8382 14.5776 67.1233 13.6445L67.2863 13.1391C67.327 12.9836 67.2863 12.9058 67.2455 12.8669C67.2048 12.7892 67.1233 12.7503 67.0011 12.7503L65.5753 12.7114V11.8561H69.9342V12.7503L68.7935 12.828L68.7528 12.9447C68.5491 13.5667 68.0195 14.8886 67.4085 16.5604C67.1641 17.2213 66.8789 17.96 66.5937 18.6987C66.3493 19.3597 64.068 25.1137 62.3978 27.7964C61.583 29.1571 60.8498 30.0513 60.2795 30.4401Z" fill="#1A943C"/>
<path d="M62.9273 11.9723V12.4777L61.4201 12.5555L60.9312 12.5943L61.0534 13.0609C61.1756 13.5274 61.5423 14.8104 62.2755 17.0265C62.8051 18.6206 63.2532 20.0591 63.7828 21.5753L63.8643 21.8475H64.5568L64.6383 21.6142C65.1679 20.2535 65.5753 19.2037 66.1048 17.6097C66.6752 15.9379 67.0418 14.6938 67.327 13.7607C67.3677 13.5663 67.4492 13.4108 67.4899 13.2164C67.5714 12.9831 67.4492 12.8276 67.4084 12.7499C67.327 12.6332 67.164 12.5555 67.0418 12.5555L65.8197 12.5166V12.0112H69.8119V12.5166L68.9972 12.5943L68.712 12.6332L68.6306 12.8665C68.4269 13.4497 67.938 14.7716 67.2862 16.4822C67.0418 17.1432 66.7566 17.8819 66.4715 18.6206C66.2271 19.2815 63.9458 25.0356 62.2755 27.6793C61.4608 29.0012 60.7683 29.8565 60.2387 30.2842C59.9535 30.1676 59.4239 29.8176 59.1795 29.5455C60.0757 28.8846 60.809 28.1459 61.3793 27.3683C62.1941 26.3574 63.0088 24.9967 63.4569 23.8692L63.4977 23.7526L63.4569 23.6359C62.52 21.2254 61.8682 19.3981 61.1756 17.4153C60.8905 16.6377 60.6461 15.899 60.4424 15.277C60.1572 14.3828 59.872 13.6441 59.6276 12.9831V12.9054C59.5461 12.711 59.3425 12.6332 59.1388 12.5943L58.2426 12.5166V12.0112H62.9273M70.2193 11.5835C69.6082 11.5835 68.875 11.6224 68.1417 11.6224H65.453C65.4123 12.0112 65.4123 12.4388 65.4123 12.8665L67.0418 12.9443C67.1233 12.9443 67.1233 12.9831 67.1233 13.0998C66.8381 14.1106 66.4715 15.4714 65.7789 17.4542C65.2086 19.126 64.8013 20.1757 64.3124 21.4587H64.1902C63.7421 20.1368 63.2532 18.6983 62.6829 16.9099C62.1126 15.0826 61.7052 13.7218 61.5015 12.9443L63.3754 12.8665C63.4162 12.4777 63.4162 12.0112 63.4162 11.6224H57.9167C57.8759 11.9723 57.8759 12.4777 57.8759 12.8665L59.1795 12.9443C59.2202 12.9443 59.3017 12.9831 59.3017 13.022L60.8497 17.4542C61.6237 19.6314 62.2755 21.3809 63.131 23.6748C62.6829 24.8023 61.8682 26.163 61.0942 27.0961C60.4424 27.9515 59.6276 28.729 58.7314 29.39C58.7314 29.7399 59.9128 30.6341 60.4016 30.6341C61.0942 30.2064 61.8682 29.1567 62.6829 27.8348C64.1087 25.541 66.0234 20.8755 66.8789 18.6983C67.8565 16.1323 68.7935 13.7996 69.0787 12.9443L70.26 12.8665C70.2193 12.4 70.2193 11.9723 70.2193 11.5835Z" fill="#1A943C"/>
<path fill-rule="evenodd" clip-rule="evenodd" d="M71.4416 23.4029V22.5087L72.8266 22.431C72.9896 22.431 73.1118 22.2755 73.1118 22.1199L73.071 13.1001L71.0342 13.0612V12.6724V12.2447C71.523 12.167 72.1748 12.0115 72.7859 11.8948C73.3969 11.7782 74.0895 11.6227 74.3746 11.5838C74.4561 12.167 74.5783 12.8279 74.6598 13.1778L74.7005 13.2945L75.0672 13.3722L75.1486 13.3333C77.7558 11.6227 78.3262 11.5449 79.4261 11.5449C80.9741 11.5449 81.8296 12.9446 82.074 13.3722C82.3999 13.9943 82.6036 14.6552 82.6036 15.3939C82.6036 16.7158 82.5628 18.3098 82.5628 19.8261C82.5628 20.6814 82.5221 21.5368 82.5221 22.3143V22.5087L84.2331 22.5865V23.4418H79.2631V22.5865L80.6889 22.5087L80.7297 22.4699C80.8111 22.431 80.8926 22.3532 80.8926 22.1977C80.9333 20.6426 80.9333 18.5431 80.9333 17.0268C80.9333 15.8216 80.9333 14.6941 80.5667 14.0332C80.0371 12.9834 79.2631 12.8279 78.5706 12.8279C77.4707 12.8279 75.8819 13.7221 74.9042 14.5386L74.8227 14.5775V14.6552C74.782 16.988 74.782 20.2538 74.782 22.2366V22.431L76.6967 22.5087V23.3641H72.5415C72.1341 23.4029 71.7675 23.4029 71.4416 23.4029Z" fill="#1A943C"/>
<path d="M79.426 11.7003C80.8518 11.7003 81.6665 13.0222 81.9109 13.411C82.2368 13.9942 82.3998 14.6162 82.3998 15.3549C82.3998 16.6768 82.359 18.2708 82.359 19.7871C82.359 20.6424 82.3183 21.4978 82.3183 22.2753V22.6641L82.7257 22.703L84.0293 22.7808V23.2473H79.4667V22.7808L80.6073 22.703H80.7295L80.811 22.6641C80.974 22.5475 81.0554 22.392 81.0554 22.2365C81.0962 20.6813 81.0962 18.5819 81.0962 17.0656C81.0962 15.8603 81.0962 14.694 80.6888 13.9942C80.0778 12.8278 79.263 12.6723 78.5297 12.6723C77.3484 12.6723 75.7596 13.5665 74.7004 14.4218L74.5782 14.5385V14.694C74.5375 17.0267 74.5375 20.2925 74.5375 22.2753V22.6641H74.9449L76.4929 22.7419V23.2084H71.7266V22.703L72.908 22.6252C73.1932 22.6252 73.3968 22.392 73.3968 22.1198L73.3561 13.2555V12.8667H72.9487L71.2785 12.8278V12.6334V12.3613C71.7266 12.2835 72.3377 12.128 72.908 12.0113C73.3968 11.8947 73.9264 11.7781 74.2523 11.7392C74.3338 12.2446 74.4153 12.8278 74.4967 13.1388L74.5375 13.3721L74.7819 13.411L74.9041 13.4499L75.0671 13.4887L75.23 13.3721C77.8372 11.7781 78.3668 11.7003 79.426 11.7003ZM79.426 11.3115C78.2853 11.3115 77.6743 11.3893 75.0671 13.1388L74.9449 13.0999C74.8634 12.7112 74.7412 11.9336 74.6597 11.3893C74.6597 11.3504 74.6597 11.3115 74.619 11.3115C74.4153 11.3115 72.0118 11.8558 70.9526 12.0502C70.9526 12.439 70.9119 12.8667 70.9119 13.2166L72.9487 13.2555L72.9895 22.1198C72.9895 22.1587 72.9487 22.2365 72.8673 22.2365L71.2785 22.3142C71.2378 22.703 71.2378 23.1695 71.2378 23.5583C72.0525 23.5583 72.9487 23.5195 73.8042 23.5195H76.8188C76.8188 23.1695 76.8595 22.703 76.8595 22.2753L74.9449 22.1976C74.9449 20.0981 74.9856 16.7934 74.9856 14.6162C76.0448 13.722 77.552 12.9444 78.5297 12.9444C79.1815 12.9444 79.8333 13.0611 80.3222 14.033C80.6888 14.6551 80.6888 15.7826 80.6888 16.9101C80.6888 18.5041 80.6888 20.5647 80.6481 22.0809C80.6481 22.1587 80.6073 22.1587 80.5666 22.1976L79.0186 22.2753C78.9778 22.6641 78.9778 23.1307 78.9778 23.5195C79.7111 23.5195 80.7295 23.4806 81.5443 23.4806H84.3552C84.3959 23.0918 84.3959 22.6252 84.3959 22.2365L82.6849 22.1587C82.7257 20.0204 82.7664 17.3377 82.7664 15.2383C82.7664 14.5773 82.6442 13.8386 82.2368 13.1388C81.7887 12.3224 80.811 11.3115 79.426 11.3115Z" fill="#1A943C"/>
<path fill-rule="evenodd" clip-rule="evenodd" d="M88.9177 23.7138C87.8178 23.7138 86.1068 22.6641 86.1068 21.1089C86.1068 19.5926 87.6141 17.4543 91.036 17.4543H93.1136V17.2599C93.1951 15.1993 92.9099 13.9941 92.2581 13.372C91.8915 12.9833 91.3619 12.8277 90.7101 12.8277C89.3658 12.8277 88.1844 13.8775 87.5326 14.6162C87.3289 14.344 87.0845 14.0719 86.8808 13.8386C87.8585 12.7889 89.3251 11.5059 91.3619 11.5059C93.4803 11.5059 94.7431 13.1776 94.7431 15.938C94.7431 17.3377 94.7024 20.7979 94.7024 21.9642C94.7024 22.5474 95.0283 22.5863 95.1505 22.5863L96.7392 22.5474V23.4028C96.2504 23.5194 94.9875 23.7138 93.9691 23.7138C93.7654 23.4805 93.521 23.0917 93.2358 22.6641L93.1136 22.4308H92.7877L92.747 22.4697C90.7916 23.5194 89.8546 23.7138 88.9177 23.7138ZM91.4027 18.3096C89.2028 18.3096 87.8585 19.2427 87.8585 20.8368C87.8585 21.8476 88.714 22.5863 89.8546 22.5863C90.5472 22.5863 91.81 22.2753 92.9507 21.3811C93.1136 21.2644 93.1136 21.1089 93.1136 20.9534V18.3874L92.9507 18.3485C92.7062 18.3096 91.6878 18.3096 91.4027 18.3096Z" fill="#1A943C"/>
<path d="M91.3212 11.7003C93.3173 11.7003 94.4987 13.2943 94.4987 15.9381C94.4987 17.3377 94.458 20.7979 94.458 21.9643C94.458 22.7419 94.9875 22.7808 95.1098 22.7808L96.4541 22.7419V23.2473C95.9245 23.3639 94.8653 23.5195 93.9691 23.5195C93.7654 23.2862 93.5617 22.9363 93.3173 22.5475L93.2358 22.4309L93.1136 22.2365H92.6248L92.5433 22.2753C90.6694 23.3251 89.7732 23.5195 88.8362 23.5195C87.8178 23.5195 86.229 22.5475 86.229 21.109C86.229 19.6705 87.6956 17.6488 90.9545 17.6488H93.2766V17.26C93.3581 15.1605 93.0729 13.9164 92.3804 13.2166C91.973 12.7889 91.4027 12.5945 90.6694 12.5945C89.3658 12.5945 88.1844 13.5276 87.4919 14.3052C87.3697 14.1497 87.2067 13.9942 87.0845 13.8386C88.1029 12.7889 89.488 11.7003 91.3212 11.7003ZM89.8546 22.7808C90.8323 22.7808 92.0952 22.3142 93.0729 21.5755C93.3173 21.42 93.3173 21.1867 93.3173 20.9923V18.2319L93.0322 18.1542C92.7877 18.0764 91.9322 18.0764 91.4434 18.0764C89.651 18.0764 87.6956 18.7762 87.6956 20.7979V20.8368C87.6548 21.9643 88.5918 22.7808 89.8546 22.7808ZM91.3212 11.3115C89.2028 11.3115 87.6956 12.5945 86.5549 13.8386C86.8401 14.1886 87.166 14.5773 87.4511 14.9272C88.3474 13.8775 89.5287 13.0222 90.6694 13.0222C92.3396 13.0222 92.9914 14.2274 92.8692 17.2989H90.9545C87.4511 17.2989 85.8217 19.5538 85.8217 21.1479C85.8217 22.7808 87.5326 23.9471 88.8362 23.9471C89.8139 23.9471 90.7509 23.7527 92.747 22.6641H92.8692C93.1951 23.2473 93.4803 23.7138 93.7654 23.9471C94.9468 23.9471 96.4541 23.675 96.8207 23.5583V22.3142L95.0283 22.3531C94.8653 22.3531 94.7839 22.1976 94.7839 21.9254C94.8246 20.7202 94.8246 17.2989 94.8246 15.8992C94.9061 12.75 93.3173 11.3115 91.3212 11.3115ZM89.8546 22.392C88.7955 22.392 88.0622 21.7699 88.0622 20.8757V20.8368C88.0622 19.5538 89.0399 18.5041 91.4027 18.5041C92.2174 18.5041 92.747 18.543 92.9099 18.5819V21.0312C92.9099 21.1867 92.9099 21.2256 92.8285 21.3034C91.81 22.0032 90.6287 22.392 89.8546 22.392Z" fill="#1A943C"/>
<path fill-rule="evenodd" clip-rule="evenodd" d="M101.832 23.7137C100.487 23.7137 99.3873 23.4804 98.817 23.2471C98.7355 22.6251 98.654 22.0419 98.6133 21.4198C98.5725 21.031 98.5318 20.6034 98.4503 20.2146C98.7762 20.1368 99.1021 20.0591 99.428 20.0202L99.7539 21.7309V21.7697C99.7947 21.9252 99.8354 22.0419 100.039 22.1974C100.406 22.5084 101.18 22.8195 101.994 22.8195C102.85 22.8195 103.542 22.7417 104.113 22.314C104.683 21.8864 104.928 21.3032 104.928 20.5645C104.928 19.0482 104.072 18.7761 102.157 18.154L101.75 18.0374C99.6724 17.3764 98.8577 16.5211 98.8577 15.0048C98.8577 13.3719 100.08 12.5166 100.446 12.2833C101.22 11.8168 102.239 11.5835 103.502 11.5835C104.805 11.5835 105.62 11.8556 105.905 12.0112C105.987 12.9443 106.109 13.9162 106.19 14.8882C106.027 14.9271 105.376 15.0048 105.213 15.0437L104.887 13.4108C104.846 13.2553 104.765 13.0609 104.642 12.9831C104.276 12.6721 103.665 12.5166 102.931 12.5166C102.239 12.5166 101.587 12.7499 101.139 13.0998C100.65 13.4886 100.406 14.0329 100.406 14.7327C100.406 16.0157 101.058 16.2878 103.176 16.9876C105.09 17.5708 106.435 18.154 106.435 20.2535C106.435 21.4587 105.865 22.4696 104.805 23.1305C104.276 23.4415 103.176 23.7137 101.832 23.7137Z" fill="#1A943C"/>
<path d="M103.583 11.7003C104.724 11.7003 105.498 11.9336 105.824 12.0502C105.905 12.8667 105.987 13.7609 106.068 14.6162C105.987 14.6162 105.864 14.6551 105.783 14.6551C105.661 14.6551 105.579 14.694 105.457 14.694L105.172 13.2555C105.131 13.0222 105.009 12.8278 104.846 12.7112C104.439 12.3612 103.787 12.2057 103.013 12.2057C102.279 12.2057 101.587 12.439 101.098 12.8278C100.569 13.2555 100.283 13.8386 100.283 14.6162C100.283 16.0936 101.18 16.4046 103.216 17.0656C105.09 17.6488 106.353 18.1931 106.353 20.137C106.353 21.2645 105.824 22.1976 104.805 22.8585C104.194 23.2862 103.135 23.5195 101.831 23.5195C100.609 23.5195 99.5908 23.2862 99.0205 23.0918C98.939 22.5086 98.8983 21.9643 98.8168 21.3811L98.6946 20.3314L99.3056 20.2148L99.5908 21.6922V21.7699C99.6316 21.9254 99.713 22.0809 99.9574 22.2753C100.365 22.6252 101.18 22.9752 102.076 22.9752C102.85 22.9752 103.665 22.8974 104.316 22.4309C104.927 21.9643 105.213 21.3034 105.213 20.5258C105.213 18.8929 104.235 18.543 102.32 17.9209L101.913 17.8043C99.9167 17.1822 99.1834 16.4046 99.1834 14.9661C99.1834 13.411 100.324 12.5945 100.691 12.4001C101.383 11.9336 102.402 11.7003 103.583 11.7003ZM103.583 11.3115C102.279 11.3115 101.22 11.5837 100.406 12.0502C99.5501 12.5556 98.7353 13.5665 98.7353 14.9272C98.7353 16.5213 99.5908 17.4544 101.75 18.1153C103.95 18.854 104.764 19.0484 104.764 20.4869C104.764 21.3034 104.398 21.7699 104.031 22.0809C103.461 22.4697 102.768 22.5475 102.035 22.5475C101.302 22.5475 100.569 22.2753 100.202 21.9643C100.039 21.8477 99.9982 21.7699 99.9574 21.6144L99.5908 19.7482C99.1427 19.7871 98.6539 19.9037 98.2057 20.0204C98.328 21.1479 98.4909 22.2365 98.6131 23.3251C99.1834 23.5972 100.365 23.8694 101.831 23.8694C103.135 23.8694 104.357 23.6361 105.05 23.1695C106.19 22.4697 106.761 21.3811 106.761 20.137C106.761 17.9209 105.253 17.2989 103.339 16.7157C101.22 16.0159 100.691 15.7826 100.691 14.6551C100.691 13.9164 100.976 13.4499 101.343 13.1777C101.709 12.8667 102.32 12.6334 103.013 12.6334C103.665 12.6334 104.235 12.7889 104.601 13.0611C104.683 13.0999 104.764 13.2166 104.805 13.3721L105.172 15.1605C105.62 15.0828 106.15 15.005 106.557 14.9661C106.475 13.9164 106.353 12.8278 106.272 11.8169C105.946 11.6614 105.009 11.3115 103.583 11.3115Z" fill="#1A943C"/>
<path fill-rule="evenodd" clip-rule="evenodd" d="M113.319 23.6752C112.708 23.6752 112.057 23.5975 111.405 22.9754C110.794 22.3533 110.753 21.7702 110.753 20.876V17.96V16.4438V14.6554V12.9836H108.92C108.92 12.7114 108.92 12.3615 108.96 11.9727C109.449 11.9727 109.979 11.9338 110.468 11.9338C110.631 11.9338 110.834 11.7394 110.834 11.5451C110.875 10.7675 110.875 9.79551 110.916 8.97905C111.445 8.62914 112.138 8.27923 112.464 8.1626C112.423 9.13457 112.423 10.5731 112.423 11.7006V11.895H112.627C113.93 11.895 115.315 11.895 116.619 11.8561C116.619 12.1282 116.578 12.4004 116.578 12.6725V12.9447H112.423V16.366C112.382 17.5324 112.382 19.1653 112.382 20.6038C112.382 21.7702 113.156 22.5477 114.338 22.5477C114.908 22.5477 115.845 22.3922 116.741 22.159C116.782 22.4311 116.823 22.7421 116.864 23.0532C115.641 23.4808 114.216 23.6752 113.319 23.6752Z" fill="#1A943C"/>
<path d="M112.301 8.43474C112.26 9.40671 112.26 10.6508 112.26 11.7006V12.0893H112.668C113.93 12.0893 115.193 12.0893 116.456 12.0505C116.456 12.2449 116.415 12.4781 116.415 12.6725V12.7503H112.219V16.366C112.179 17.5324 112.179 19.1653 112.179 20.6038C112.179 21.8868 113.034 22.7421 114.338 22.7421C114.867 22.7421 115.723 22.6255 116.578 22.3922C116.619 22.5477 116.619 22.7421 116.66 22.8976C115.519 23.2864 114.216 23.4808 113.36 23.4808H113.319C112.749 23.4808 112.179 23.4031 111.568 22.8588C110.997 22.2756 110.957 21.7702 110.957 20.9148V17.9989V16.4827V14.6942V12.7892H109.123C109.123 12.5948 109.123 12.4004 109.164 12.1671C109.612 12.1671 110.06 12.1282 110.509 12.1282C110.794 12.1282 111.079 11.8561 111.079 11.545C111.12 10.7675 111.12 9.83438 111.16 9.05681C111.527 8.82353 111.975 8.59026 112.301 8.43474ZM112.627 7.85156C112.545 7.85156 111.445 8.35699 110.712 8.82353C110.712 9.63999 110.671 10.6897 110.631 11.5062C110.631 11.6228 110.508 11.7006 110.468 11.7006C109.897 11.7394 109.327 11.7394 108.757 11.7394C108.716 12.1671 108.716 12.6725 108.716 13.1391H110.549C110.549 13.8389 110.509 15.5884 110.509 16.4438C110.509 17.1436 110.468 19.4374 110.468 20.876C110.468 21.7702 110.509 22.4311 111.201 23.092C111.934 23.7919 112.708 23.8307 113.238 23.8307H113.279C114.256 23.8307 115.764 23.5975 117.026 23.1309C116.986 22.7033 116.904 22.2367 116.823 21.8868C115.886 22.159 114.867 22.3145 114.256 22.3145C113.319 22.3145 112.505 21.7702 112.505 20.5649C112.505 19.1653 112.505 17.4935 112.545 16.3271V13.1391H116.701C116.741 12.6725 116.782 12.1671 116.782 11.6617C115.438 11.7006 113.971 11.7006 112.586 11.7006C112.586 10.4953 112.627 8.94017 112.627 7.9682C112.708 7.89044 112.708 7.85156 112.627 7.85156Z" fill="#1A943C"/>
<path fill-rule="evenodd" clip-rule="evenodd" d="M126.152 23.4025V22.7804V22.5471L127.537 22.4694C127.7 22.4694 127.822 22.3138 127.822 22.1583V16.9486C127.822 15.5101 127.822 14.577 127.374 13.8383C127.007 13.1773 126.355 12.8274 125.5 12.8274C124.278 12.8274 122.77 13.6828 121.711 14.4603L121.63 14.4992V14.577C121.589 16.9097 121.589 20.1366 121.589 22.2361V22.4305L123.667 22.5082V23.3636H118.452V22.4694L119.797 22.3916C119.96 22.3916 120.082 22.275 120.082 22.0806C120.122 17.0652 120.122 10.3003 120.122 5.40158V5.20719L118.086 5.16831V4.31298C118.656 4.23522 119.552 4.07971 120.367 3.92419C120.897 3.80756 121.508 3.7298 121.793 3.69092C121.793 5.47934 121.752 7.65655 121.752 9.75601C121.752 10.8446 121.711 11.8943 121.711 12.9441V13.0996L122.037 13.1773L122.119 13.1385C124.97 11.4667 125.5 11.4667 126.396 11.4667C127.455 11.4667 128.514 12.2054 129.166 13.4106C129.411 13.8772 129.533 14.5381 129.533 15.4712C129.533 17.454 129.492 19.6701 129.492 21.8084V22.4694L131.244 22.5471V23.4025H126.152Z" fill="#1A943C"/>
<path d="M121.548 3.96331C121.548 5.71286 121.507 7.77344 121.507 9.75626C121.507 10.8449 121.467 11.9335 121.467 12.9832V13.2942L121.752 13.372L121.874 13.4109L122.037 13.4497L122.2 13.372C125.011 11.7002 125.5 11.7002 126.355 11.7002C127.822 11.7002 128.718 13.0998 128.962 13.5275C129.207 13.994 129.288 14.6161 129.288 15.5103C129.288 17.4931 129.247 19.6703 129.247 21.8087V22.7029H129.655L131.04 22.7418V23.2472H126.437V22.8195V22.7418L127.618 22.664C127.903 22.664 128.107 22.4307 128.107 22.1586V16.9488C128.107 15.4714 128.107 14.5383 127.659 13.7608C127.251 13.0221 126.559 12.6333 125.622 12.6333C124.359 12.6333 122.77 13.4886 121.711 14.3051L121.548 14.4217V14.6161C121.507 17.9597 121.507 20.6423 121.507 22.2752V22.664H121.915L123.585 22.7029V23.2083H118.778V22.7029L119.919 22.6251C120.204 22.6251 120.408 22.3918 120.408 22.1197C120.448 17.1043 120.448 10.3394 120.448 5.4407V5.05192H120.041L118.411 5.01304V4.54649C118.982 4.46873 119.796 4.31322 120.53 4.1577C120.774 4.11883 121.222 4.04107 121.548 3.96331ZM121.874 3.53564C121.67 3.53564 118.9 4.07995 117.882 4.23546C117.841 4.58537 117.841 5.05192 117.841 5.4407L119.878 5.47958C119.878 10.4949 119.878 17.1821 119.837 22.1586C119.837 22.1975 119.796 22.2752 119.756 22.2752L118.248 22.353C118.208 22.7418 118.208 23.1694 118.208 23.5971C119.022 23.5971 120.041 23.5582 120.774 23.5582H123.829C123.829 23.1694 123.87 22.7029 123.87 22.3141L121.793 22.2363C121.793 20.098 121.833 16.8322 121.833 14.5772C122.933 13.7608 124.4 12.9832 125.5 12.9832C125.989 12.9832 126.722 13.0998 127.17 13.9163C127.577 14.6161 127.577 15.5103 127.577 16.9099V22.1197C127.577 22.1586 127.537 22.2363 127.455 22.2363L125.866 22.3141C125.866 22.7418 125.826 23.1694 125.866 23.5582C126.681 23.5582 127.699 23.5193 128.555 23.5193H131.284C131.325 23.1305 131.325 22.664 131.325 22.2752L129.573 22.1975C129.614 19.9814 129.614 17.5709 129.614 15.3937C129.614 14.5772 129.533 13.8385 129.247 13.2553C128.677 12.2056 127.618 11.2336 126.274 11.2336C125.296 11.2336 124.726 11.2725 121.915 12.9443L121.793 12.9054C121.833 9.75626 121.874 6.25716 121.874 3.57452C121.956 3.57452 121.915 3.53564 121.874 3.53564Z" fill="#1A943C"/>
<path fill-rule="evenodd" clip-rule="evenodd" d="M138.454 23.7138C135.277 23.7138 133.28 21.5755 133.28 18.1541C133.28 14.3051 135.602 11.5059 138.739 11.5059C140.002 11.5059 141.021 11.9724 141.713 12.8666C142.365 13.7219 142.691 14.9661 142.691 16.4823C142.528 16.8323 142.12 17.3377 141.958 17.3766C140.45 17.4154 137.028 17.4543 135.195 17.4543H134.991V17.6487C134.951 19.2427 135.277 20.4869 135.928 21.3033C136.743 22.353 137.639 22.5474 138.821 22.5474C139.758 22.5474 140.858 22.2753 142.243 21.6921C142.324 21.9642 142.406 22.3142 142.446 22.6252C141.102 23.2861 139.595 23.7138 138.454 23.7138ZM138.413 12.4389C137.517 12.4389 136.825 12.75 136.295 13.4109C135.969 13.7997 135.195 14.7717 135.114 16.2879V16.4823H135.317C136.784 16.4823 138.943 16.4435 140.532 16.4046C140.858 16.4046 141.061 16.2102 141.061 15.8992C141.061 14.9661 140.776 13.9941 140.287 13.372C139.839 12.75 139.228 12.4389 138.413 12.4389Z" fill="#1A943C"/>
<path d="M138.739 11.7003C139.962 11.7003 140.898 12.1669 141.55 12.9833C142.161 13.7998 142.487 15.005 142.487 16.4435C142.365 16.7157 142.039 17.0656 141.917 17.1822C140.369 17.2211 136.988 17.26 135.236 17.26H134.829V17.6488C134.788 19.3206 135.114 20.5647 135.806 21.42C136.662 22.5086 137.68 22.7419 138.862 22.7419C139.758 22.7419 140.858 22.4697 142.161 21.9643C142.202 22.1587 142.243 22.3142 142.284 22.5086C141.021 23.1307 139.554 23.5195 138.495 23.5195C135.44 23.5195 133.525 21.4589 133.525 18.1542V18.1153C133.484 14.3829 135.684 11.7003 138.739 11.7003ZM134.91 16.7157H135.358C136.825 16.7157 138.984 16.6768 140.573 16.6379C141.021 16.6379 141.306 16.3658 141.306 15.9381C141.306 14.9661 141.021 13.9553 140.491 13.2943C139.962 12.6334 139.269 12.2835 138.454 12.2835H138.413C137.436 12.2835 136.703 12.6334 136.132 13.3332C135.806 13.7609 135.032 14.7329 134.91 16.3269V16.7157ZM138.739 11.3115C135.317 11.3115 133.077 14.4218 133.077 18.1153V18.1542C133.077 21.4589 134.992 23.9082 138.454 23.9082C139.595 23.9082 141.224 23.4806 142.691 22.703C142.65 22.3142 142.528 21.8088 142.406 21.42C141.469 21.8088 140.084 22.3531 138.862 22.3531C137.762 22.3531 136.906 22.1976 136.132 21.1867C135.521 20.4092 135.236 19.2428 135.236 17.6488C136.906 17.6488 140.45 17.6099 141.998 17.571C142.284 17.5321 142.772 16.8712 142.895 16.5213C142.895 15.2383 142.65 13.8386 141.876 12.7889C141.184 11.8558 140.124 11.3115 138.739 11.3115ZM135.317 16.3269C135.399 14.8495 136.091 13.9942 136.458 13.5276C136.906 12.9833 137.517 12.6334 138.413 12.6334H138.454C139.228 12.6334 139.758 12.9833 140.165 13.4887C140.573 13.9942 140.898 14.9272 140.898 15.8992C140.898 16.1325 140.776 16.2102 140.573 16.2102C138.984 16.288 136.825 16.3269 135.317 16.3269Z" fill="#1A943C"/>
<path fill-rule="evenodd" clip-rule="evenodd" d="M149.331 23.6752C148.72 23.6752 148.068 23.5975 147.416 22.9754C146.805 22.3533 146.765 21.7702 146.765 20.876V17.96V16.4438V14.6554V12.9836H144.932C144.932 12.6337 144.972 12.2837 144.972 11.9727C145.461 11.9727 145.991 11.9338 146.48 11.9338C146.642 11.9338 146.846 11.7394 146.846 11.5451V11.3507C146.887 10.612 146.887 9.71775 146.928 8.97905C147.457 8.62914 148.15 8.27923 148.476 8.1626C148.476 8.82354 148.435 10.4176 148.435 11.7006V11.895H148.639C149.942 11.895 151.327 11.895 152.631 11.8561C152.631 12.206 152.59 12.517 152.59 12.828V12.9447H148.435V16.3271C148.394 17.4935 148.394 19.1264 148.394 20.5649C148.394 21.7313 149.168 22.5089 150.35 22.5089C150.92 22.5089 151.857 22.3533 152.753 22.1201C152.794 22.3922 152.835 22.7033 152.875 23.0143C151.653 23.4808 150.268 23.6752 149.331 23.6752Z" fill="#1A943C"/>
<path d="M148.354 8.43474C148.354 9.21232 148.313 10.5731 148.313 11.7006V12.0893H148.72C149.983 12.0893 151.246 12.0893 152.468 12.0505C152.468 12.2837 152.427 12.517 152.427 12.7503H148.231V16.3271C148.191 17.4935 148.191 19.1264 148.191 20.5649C148.191 21.8479 149.046 22.7033 150.35 22.7033C150.879 22.7033 151.735 22.5866 152.59 22.3533C152.631 22.5089 152.631 22.7033 152.672 22.8588C151.531 23.2476 150.227 23.442 149.372 23.442H149.331C148.761 23.442 148.191 23.3642 147.58 22.8199C147.009 22.2367 146.968 21.7313 146.968 20.8371V17.9212V16.4049V14.6165V12.7114H145.135C145.135 12.517 145.135 12.2837 145.176 12.0893C145.583 12.0893 146.031 12.0505 146.52 12.0505C146.806 12.0505 147.091 11.7783 147.091 11.4673V11.3895C147.131 10.6508 147.131 9.75662 147.172 9.01793C147.539 8.82353 148.028 8.59026 148.354 8.43474ZM148.679 7.85156C148.598 7.85156 147.498 8.35699 146.806 8.82353C146.765 9.63999 146.765 10.6897 146.724 11.5062C146.724 11.6228 146.602 11.7006 146.561 11.7006C145.991 11.7394 145.42 11.7394 144.85 11.7394C144.85 12.1671 144.809 12.6725 144.809 13.1391H146.643C146.643 13.8389 146.602 15.5884 146.602 16.4438C146.602 17.1436 146.561 19.4374 146.561 20.876C146.561 21.7702 146.602 22.4311 147.294 23.092C148.028 23.7919 148.802 23.8307 149.331 23.8307H149.372C150.35 23.8307 151.857 23.5975 153.12 23.1309C153.079 22.7033 152.998 22.2367 152.916 21.8868C151.979 22.159 150.961 22.3145 150.35 22.3145C149.413 22.3145 148.598 21.7702 148.598 20.5649C148.598 19.1653 148.598 17.4935 148.639 16.3271V13.1391H152.794C152.835 12.6725 152.875 12.1671 152.875 11.6617C151.531 11.7006 150.064 11.7006 148.679 11.7006C148.679 10.4953 148.72 8.94017 148.72 7.9682C148.761 7.89044 148.72 7.85156 148.679 7.85156Z" fill="#1A943C"/>
<path fill-rule="evenodd" clip-rule="evenodd" d="M25.4594 0H22.7812C23.7377 1.32365 25.7942 4.51867 25.9855 8.94606C26.3681 16.9336 18.5726 23.5519 18.5726 23.5519C18.5726 23.5519 23.6899 16.7967 22.3508 9.17427C21.5378 4.42739 18.0465 1.18672 16.8509 0.182573C17.8552 1.59751 19.7204 4.74689 19.9595 8.9917C20.39 16.9793 12.5945 23.5519 12.5945 23.5519C12.5945 23.5519 17.7596 16.7967 16.4205 9.17427C15.5596 4.19917 11.7336 0.821578 10.7771 0.0456442H8.67284L0.303467 13.8755L8.67284 27.751H25.4116L33.781 13.8755L25.4594 0Z" fill="#1A943C"/>
</g>
</svg>
