<svg width="109" height="56" viewBox="0 0 109 56" fill="none" xmlns="http://www.w3.org/2000/svg">
<mask id="mask0_15_66" style="mask-type:luminance" maskUnits="userSpaceOnUse" x="0" y="0" width="109" height="56">
<path d="M108.287 0H0V55.0461H108.287V0Z" fill="white"/>
</mask>
<g mask="url(#mask0_15_66)">
<path d="M29.1082 24.3507L29.2642 24.5028C29.2732 24.5174 29.2924 24.5298 29.3073 24.5447C29.8451 25.0359 31.2446 26.0911 32.3636 24.9975C32.4927 24.8663 32.6442 24.7165 32.8151 24.5519L33.1613 24.213C33.2206 24.1537 33.2798 24.0925 33.3426 24.0313L34.3424 23.0528L34.7538 22.647C36.0566 21.3691 37.2988 20.1495 37.2988 20.1495C37.2988 20.1495 37.3047 20.1467 37.3166 20.1381L37.4071 20.0418C37.6003 19.8236 37.9096 19.2952 37.241 18.5911C37.2232 18.5683 37.195 18.5474 37.177 18.5269L24.7787 6.35725C23.5605 5.16477 21.5665 5.16477 20.3573 6.35725L1.21824 25.1387C7.15256e-06 26.3307 7.15256e-06 28.283 1.21824 29.4762L20.3573 48.2604C21.5665 49.4499 23.5605 49.4499 24.7787 48.2604L36.9466 36.3161C37.7283 35.5477 37.2822 34.9048 37.1666 34.7708L37.1457 34.7443L31.9962 29.6923C30.9768 28.6952 30.1421 29.2725 29.9058 29.4837C29.8567 29.5237 29.8358 29.5506 29.8358 29.5506L23.4621 35.8058C23.2234 36.0379 22.9009 36.1681 22.5648 36.1681C22.2288 36.1681 21.9063 36.0379 21.6675 35.8058L13.9061 28.1844C13.4141 27.7039 13.4141 26.9124 13.9061 26.4275L21.6675 18.8102C21.906 18.5777 22.2286 18.4472 22.5648 18.4472C22.901 18.4472 23.2236 18.5777 23.4621 18.8102L29.0798 24.3207V24.3237C29.0857 24.3279 29.0992 24.337 29.1082 24.3507Z" fill="#1A943C"/>
<path d="M63.8289 24.7544V24.753L58.2136 19.2395C57.7166 18.7571 56.9086 18.7571 56.4187 19.2395L48.6543 26.8567C48.1641 27.3412 48.1641 28.1346 48.6543 28.6165L56.4187 36.2354C56.9086 36.7194 57.7168 36.7194 58.2136 36.2354L59.2588 35.2085L54.1453 30.0829H66.7028C66.714 30.095 66.7322 30.1078 66.7446 30.123L66.8261 30.2039C68.1228 31.4764 71.8934 35.1752 71.8934 35.1752C71.8934 35.1752 71.9026 35.1857 71.9159 35.2027C72.0289 35.3373 72.4771 35.9802 71.694 36.7456L59.5295 48.6862C58.3082 49.882 56.3189 49.882 55.1047 48.6862L35.969 29.9066C34.7538 28.7156 34.7538 26.7625 35.969 25.568L55.1047 6.78791C56.3189 5.59544 58.3082 5.59544 59.5295 6.78791L71.923 18.9576C71.9474 18.9764 71.9706 19.0006 71.987 19.0218C72.6542 19.7244 72.3501 20.2554 72.1598 20.4708L72.0633 20.5671C72.0541 20.5757 72.0472 20.5801 72.0472 20.5801C72.0472 20.5801 70.8064 21.7998 69.5038 23.0793L69.0921 23.4821L68.0965 24.462C68.0284 24.5232 67.9673 24.5829 67.9073 24.6441L67.5646 24.9844C67.3968 25.147 67.2435 25.2954 67.1133 25.4265C65.9956 26.5218 64.5963 25.4679 64.0554 24.9749C64.0422 24.9604 64.0227 24.9467 64.0137 24.9321L63.858 24.7813C63.8443 24.7681 63.8353 24.7586 63.8289 24.7544Z" fill="#1A943C"/>
<path d="M99.4889 24.3507L99.6444 24.5028C99.6555 24.5174 99.6728 24.5298 99.6882 24.5447C100.227 25.0359 101.626 26.0911 102.74 24.9975C102.876 24.8663 103.028 24.7165 103.191 24.5519L103.539 24.213C103.601 24.1537 103.661 24.0925 103.726 24.0313L104.72 23.0528L105.135 22.647L107.681 20.1495C107.681 20.1495 107.687 20.1467 107.694 20.1381L107.791 20.0418C107.981 19.8236 108.287 19.2952 107.62 18.5911C107.601 18.5683 107.576 18.5474 107.559 18.5269L95.1544 6.35725C93.9412 5.16477 91.9531 5.16477 90.7349 6.35725L71.5961 25.1387C70.384 26.3307 70.384 28.283 71.5961 29.4762L90.7349 48.2604C91.9534 49.4499 93.9412 49.4499 95.1544 48.2604L107.327 36.3161C108.109 35.5477 107.657 34.9048 107.547 34.7708L107.526 34.7443L102.376 29.6923C101.358 28.6952 100.527 29.2725 100.288 29.4837C100.24 29.5237 100.217 29.5506 100.217 29.5506L93.8423 35.8058C93.3522 36.2889 92.5428 36.2889 92.0486 35.8058L84.2873 28.1844C83.7962 27.7039 83.7962 26.9124 84.2873 26.4275L92.0486 18.8102C92.5428 18.3262 93.3522 18.3262 93.8423 18.8102L99.4621 24.3207V24.3237C99.4727 24.3309 99.4818 24.3401 99.4889 24.3507Z" fill="#1A943C"/>
</g>
</svg>
