<svg width="128" height="40" viewBox="0 0 128 40" fill="none" xmlns="http://www.w3.org/2000/svg">
<mask id="mask0_15_74" style="mask-type:luminance" maskUnits="userSpaceOnUse" x="0" y="0" width="128" height="40">
<path d="M127.2 0H0.322784V40H127.2V0Z" fill="white"/>
</mask>
<g mask="url(#mask0_15_74)">
<path d="M8.35455 38.6023C7.66324 39.5674 6.74148 39.9335 5.65513 39.9335C3.44951 39.9335 1.90228 38.3029 1.90228 36.0733C1.90228 33.8435 3.44951 32.213 5.65513 32.213C6.64272 32.213 7.53155 32.5457 8.15703 33.3777L7.5974 33.8435C7.13652 33.1448 6.37936 32.8453 5.65513 32.8453C3.74579 32.8453 2.59361 34.243 2.59361 36.0733C2.59361 37.9035 3.77871 39.3011 5.65513 39.3011C6.37936 39.3011 7.2682 38.9351 7.79491 38.1697L8.35455 38.6023ZM20.8311 32.2463C23.0368 32.2463 24.584 33.8769 24.584 36.1065C24.584 38.3361 23.0368 39.9667 20.8311 39.9667C18.6255 39.9667 17.0782 38.3361 17.0782 36.1065C17.1111 33.8435 18.6255 32.2463 20.8311 32.2463ZM20.8311 39.3011C22.7404 39.3011 23.8927 37.9035 23.8927 36.0733C23.8927 34.243 22.7075 32.8453 20.8311 32.8453C18.9218 32.8453 17.7696 34.243 17.7696 36.0733C17.7696 37.9035 18.9547 39.3011 20.8311 39.3011ZM34.032 32.4127H35.0525L37.686 38.569L40.3196 32.4127H41.2743V39.7338H40.583V33.2778H40.55L37.7847 39.7338H37.5214L34.7233 33.2778H34.6903V39.7338H33.9989V32.4127H34.032ZM51.1831 32.4127H53.257C54.2775 32.4127 55.5943 32.812 55.5943 34.3427C55.5943 35.6738 54.5409 36.2729 53.4216 36.2729H51.8415V39.7671H51.1502V32.4127H51.1831ZM51.8744 35.6406H53.4216C54.1788 35.6406 54.9688 35.3078 54.9688 34.3427C54.9688 33.411 54.1788 33.0117 53.3887 33.0117H51.9073L51.8744 35.6406ZM66.5236 32.4127H67.2149L70.2765 39.7338H69.5194L68.7293 37.8037H64.8777L64.0547 39.7338H63.3634L66.5236 32.4127ZM66.8528 33.1781L65.1739 37.2047H68.4989L66.8528 33.1781ZM79.3294 32.4127H80.1853L84.5966 38.8353H84.6295V32.4127H85.3208V39.7338H84.4649L80.0207 33.3445H79.9878V39.7671H79.3294V32.4127ZM95.2625 32.4127H95.9539V39.7338H95.2625V32.4127ZM105.929 32.4127H110.373V33.0449H106.62V35.6406H110.142V36.2729H106.62V39.1347H110.537V39.7671H105.929V32.4127ZM120.183 38.4026C120.545 39.0017 121.137 39.3344 121.829 39.3344C122.751 39.3344 123.441 38.7687 123.441 37.9035C123.441 35.8402 119.689 37.0383 119.689 34.2762C119.689 32.9784 120.808 32.2795 122.027 32.2795C122.816 32.2795 123.508 32.5457 124.002 33.2113L123.409 33.6439C123.08 33.1781 122.618 32.9118 121.993 32.9118C121.137 32.9118 120.381 33.3777 120.381 34.3095C120.381 36.5058 124.133 35.1747 124.133 37.9368C124.133 39.2679 123.047 40 121.894 40C120.94 40 120.117 39.7005 119.524 38.9018L120.183 38.4026ZM76.8933 26.1897L77.5188 26.2562L78.3089 20.2995L77.7821 20.1331C76.8933 19.8336 76.0374 19.2014 75.4778 18.3361C74.6219 17.0383 74.2927 15.3744 74.5232 13.3777C74.7536 11.2146 75.4449 9.45091 76.5641 8.11981C77.3542 7.18802 78.3747 6.58902 79.5928 6.38935L80.0537 6.28952L80.7779 0.0998334L79.9549 0.199667C77.1896 0.565725 74.5232 1.86357 72.7125 3.72712C70.3423 6.15641 68.9597 9.31781 68.5647 13.0449C68.1697 16.8054 68.8939 20 70.6715 22.4625C72.3833 24.792 74.2269 25.8902 76.8933 26.1897ZM44.9941 19.4343H38.8711L40.8792 0.299502H35.1183L32.4517 26.0233H44.3028L44.9941 19.4343ZM55.2651 26.3561C56.9441 26.3561 58.6558 25.8902 60.4006 24.9917C62.1454 24.0931 63.6267 22.6289 64.8118 20.6656C65.9969 18.7354 66.6882 16.8719 66.8857 15.1747L67.2809 11.4809H56.3843L55.9235 17.2379H60.4664C59.9397 18.1365 59.3142 18.8353 58.7217 19.2014C57.9316 19.7005 57.1087 19.9335 56.3186 19.9335C54.8371 19.9335 53.685 19.3011 52.7632 18.0366C51.8086 16.7055 51.4465 15.1081 51.644 13.1781C51.8415 11.3478 52.5328 9.78369 53.7837 8.4193C55.0017 7.08818 56.3186 6.45591 57.767 6.45591C58.6229 6.45591 59.413 6.72213 60.1701 7.25457C60.8943 7.78702 61.2235 8.21963 61.9148 9.55075L62.31 10.2829L66.6553 6.45591L66.4578 6.02329C64.7789 2.02995 61.9479 0 58.0304 0C55.0017 0 52.2694 1.29784 49.8662 3.82696C47.4961 6.3228 46.1135 9.41763 45.7514 12.9451C45.3562 16.6722 46.0806 19.8669 47.8911 22.4293C49.7017 25.0249 52.2036 26.3561 55.2651 26.3561ZM29.5219 26.0233L32.1884 0.299502H26.3945L23.7281 26.0233H29.5219ZM83.9052 8.05325C84.7283 9.28453 85.0246 10.9817 84.7941 13.0782C84.5637 15.2413 83.8724 16.9717 82.786 18.2696C81.7325 19.4675 80.8437 20.0999 79.8891 20.2662L79.4282 20.3661L78.704 26.3227L79.527 26.223C82.2263 25.9567 84.6623 24.7255 86.7363 22.5291C89.0736 20.0665 90.4563 16.9384 90.8184 13.2446C91.2134 9.48419 90.4563 6.3228 88.6127 3.82696C87.1972 1.96339 85.1891 0.798669 82.6543 0.332778L81.963 0.232945L81.2717 6.42263L81.7984 6.58902C82.786 6.95507 83.4773 7.38769 83.9052 8.05325ZM10.231 14.0099L10.6589 10.2829L11.6466 0.299502H5.49054L2.72528 26.0233H8.84835L10.231 14.0099ZM15.5639 26.0233H22.6746L15.1689 12.6789L25.2424 0.299502H17.8025L11.877 8.08653L10.8564 17.4709L15.5639 26.0233ZM123.244 19.8669H116.068L116.429 16.1398H123.639L124.264 10.0499H117.089L117.45 6.45591H124.66L125.285 0.299502H112.314L109.615 26.0233H122.618L123.244 19.8669ZM98.1595 17.4376L102.143 25.9901H108.727L103.822 15.4742C105.204 14.6755 106.258 13.6106 106.949 12.3128C107.673 10.9151 108.101 9.51747 108.266 8.18635C108.496 5.82362 108.035 3.89351 106.85 2.46256C105.665 1.03162 103.888 0.299502 101.616 0.299502H94.2091L91.5097 26.0233H97.3036L98.1595 17.4376ZM99.18 5.55741H99.7725C100.826 5.55741 101.583 5.79035 102.077 6.28952C102.538 6.75541 102.735 7.38769 102.669 8.21963C102.439 10.416 101.254 11.4475 98.9495 11.4475H98.5874L99.18 5.55741Z" fill="#1A943C"/>
</g>
</svg>
