<svg width="171" height="27" viewBox="0 0 171 27" fill="none" xmlns="http://www.w3.org/2000/svg">
<g clip-path="url(#clip0_15_80)">
<mask id="mask0_15_80" style="mask-type:luminance" maskUnits="userSpaceOnUse" x="0" y="0" width="171" height="27">
<path d="M170.287 0H0.287476V27H170.287V0Z" fill="white"/>
</mask>
<g mask="url(#mask0_15_80)">
<path d="M1.59706 25.3055V1.69451C1.59706 1.47033 1.79486 1.27253 2.0404 1.27253H30.9808C31.2195 1.27253 31.4173 1.47033 31.4173 1.69451V25.3055C31.4173 25.5429 31.2195 25.7341 30.9808 25.7341H2.0404C1.79486 25.7341 1.59706 25.5429 1.59706 25.3055ZM2.0404 0C1.07186 0 0.287476 0.764835 0.287476 1.69451V25.3055C0.287476 26.2418 1.07186 27 2.0404 27H30.9808C31.9425 27 32.7269 26.2418 32.7269 25.3055V1.69451C32.7269 0.764835 31.9493 0 30.9808 0H2.0404Z" fill="#1A943C"/>
<path d="M26.7315 16.1737L18.5671 16.1474C18.0146 16.1474 17.5644 15.7188 17.5644 15.1847C17.5644 14.9737 17.6394 14.7825 17.7554 14.6243L21.9229 10.5693C22.107 10.3518 22.3253 10.2792 22.639 10.2792C22.8914 10.2792 23.1097 10.3649 23.2802 10.5034L27.55 14.6573C27.6591 14.8155 27.7205 15.0001 27.7205 15.1979C27.7273 15.7386 27.284 16.1737 26.7315 16.1737ZM14.4883 16.1474L6.31702 16.1671C5.77136 16.1671 5.32801 15.732 5.32801 15.1979C5.32801 15.0001 5.3894 14.8155 5.49171 14.6573L9.76831 10.5034C9.95247 10.3583 10.1844 10.2792 10.4163 10.2792C10.73 10.2792 10.9483 10.3518 11.1325 10.5693L15.2999 14.6243C15.4091 14.7825 15.4841 14.9737 15.4841 15.1847C15.4841 15.7188 15.0407 16.1474 14.4883 16.1474ZM28.6958 3.63967L23.3279 8.83527V8.84846C23.1574 9.03967 22.8778 9.14516 22.6254 9.14516C22.373 9.14516 22.1479 9.02648 21.957 8.81549L16.5072 3.56055L11.0779 8.82209C10.8869 9.03307 10.6482 9.14516 10.3958 9.14516C10.1435 9.14516 9.87062 9.02648 9.69328 8.83527L4.33218 3.63967L4.29126 3.6067V23.5386H28.7368V3.6067L28.6958 3.63967Z" fill="#1A943C"/>
<path d="M49.6287 23.5122V7.81988H41.4165V3.60669H63.4134V7.81988H55.665V23.5056H49.6287V23.5122ZM66.2031 23.5122V3.60669H86.0309V7.97812H71.4687V11.743H85.724V15.6594H71.4687V19.5825H86.0309V23.499H66.2031V23.5122ZM115.919 23.5122V3.60669H135.747V7.97812H121.185V11.743H135.44V15.6594H121.185V19.5825H135.747V23.499H115.919V23.5122ZM163.59 23.5452L153.986 13.0484L162.621 3.60669H155.418L150.371 9.09241L145.344 3.60669H138.141L146.742 13.0484L137.139 23.5122H144.423L150.364 17.0177L156.305 23.5452H163.59ZM89.8983 3.60669V23.5122H95.314V15.9693H100.661L106.63 23.5056H113.13C113.13 23.5056 107.168 15.8902 107.243 15.9693C113.9 16.1144 116.397 3.6001 105.074 3.6001L89.8983 3.60669ZM95.3549 7.66823H104.958C108.096 7.66823 108.178 11.743 105.074 11.743H95.314L95.3549 7.66823ZM167.123 23.2155C165.677 23.2155 164.517 22.0682 164.517 20.6441C164.517 19.2199 165.677 18.0726 167.123 18.0726C168.562 18.0726 169.728 19.2199 169.728 20.6441C169.728 22.0616 168.562 23.2155 167.123 23.2155ZM163.944 20.6441C163.944 22.3386 165.363 23.7034 167.123 23.7034C168.876 23.7034 170.294 22.332 170.294 20.6441C170.294 18.9495 168.876 17.5715 167.123 17.5715C165.363 17.5715 163.944 18.9495 163.944 20.6441ZM166.413 20.4528V19.3649H167.184C167.58 19.3649 167.989 19.4177 167.989 19.8924C167.989 20.4265 167.532 20.4463 167.02 20.4463L166.413 20.4528ZM165.854 22.4572H166.413V20.9539H167.027L168.05 22.4572H168.61L167.552 20.9078C168.112 20.855 168.548 20.5517 168.548 19.9122C168.548 19.2067 168.105 18.8638 167.28 18.8638H165.847L165.854 22.4572Z" fill="#1A943C"/>
</g>
</g>
<defs>
<clipPath id="clip0_15_80">
<rect width="171" height="27" fill="white"/>
</clipPath>
</defs>
</svg>
