<svg width="58" height="58" viewBox="0 0 58 58" fill="none" xmlns="http://www.w3.org/2000/svg">
<path d="M34.8163 46.0045C42.3104 38.0351 45.7914 26.9971 46.9221 22.6481C47.8977 27.4607 43.0421 39.7349 40.5588 44.6137C44.5498 47.3291 49.6493 42.7814 52.3764 36.9754C55.0814 31.1474 55.7022 22.6481 48.6294 12.8243C42.7095 15.2527 38.7629 18.5641 36.1466 21.5223C37.5213 25.5401 37.2996 31.037 36.8118 32.6485C36.2353 28.5203 35.1711 25.4518 34.2842 23.7299C30.9584 17.1512 18.4313 9.15968 4.28569 9.62328C3.1771 23.2 4.13049 50.1106 29.5838 47.0641C28.5417 37.3949 18.5644 21.8534 13.5313 16.6214C23.4422 22.8468 32.3109 40.5076 34.8163 46.0045Z" fill="url(#paint0_linear_1_486)"/>
<defs>
<linearGradient id="paint0_linear_1_486" x1="-4.4642" y1="39.5702" x2="6.77854" y2="0.720812" gradientUnits="userSpaceOnUse">
<stop stop-color="#2CAA4F"/>
<stop offset="1" stop-color="#63ED8A"/>
</linearGradient>
</defs>
</svg>
